<?xml version="1.0" encoding="UTF-8"?>
<!DOCTYPE svg PUBLIC "-//W3C//DTD SVG 1.1//EN" "http://www.w3.org/Graphics/SVG/1.1/DTD/svg11.dtd">
<svg xmlns="http://www.w3.org/2000/svg" version="1.1" width="1034px" height="1034px" style="shape-rendering:geometricPrecision; text-rendering:geometricPrecision; image-rendering:optimizeQuality; fill-rule:evenodd; clip-rule:evenodd" xmlns:xlink="http://www.w3.org/1999/xlink">
<g><path style="opacity:1" fill="#fefefe" d="M -0.5,-0.5 C 344.167,-0.5 688.833,-0.5 1033.5,-0.5C 1033.5,344.167 1033.5,688.833 1033.5,1033.5C 688.833,1033.5 344.167,1033.5 -0.5,1033.5C -0.5,688.833 -0.5,344.167 -0.5,-0.5 Z"/></g>
<g><path style="opacity:1" fill="#ed4b4c" d="M 622.5,190.5 C 647.468,188.424 671.468,192.257 694.5,202C 736.188,222.11 772.355,249.61 803,284.5C 856.748,352.155 876.081,428.822 861,514.5C 845.109,599.499 802.943,667.999 734.5,720C 707.168,739.166 677.501,753.832 645.5,764C 603.174,777.834 559.841,787.167 515.5,792C 452.455,798.788 391.455,790.788 332.5,768C 292.7,751.688 258.866,727.188 231,694.5C 196.435,655.056 171.435,610.056 156,559.5C 134.229,460.921 171.729,397.088 268.5,368C 311.556,356.677 355.389,351.177 400,351.5C 413.999,351.878 427.999,352.211 442,352.5C 450.265,352.637 458.432,352.137 466.5,351C 471.506,346.474 475.673,341.307 479,335.5C 496.345,302.122 516.678,270.788 540,241.5C 556.028,222.748 575.195,208.248 597.5,198C 605.826,195.008 614.16,192.508 622.5,190.5 Z"/></g>
<g><path style="opacity:1" fill="#bc3d3d" d="M 653.5,311.5 C 644.867,310.623 636.2,310.289 627.5,310.5C 635.235,309.819 643.068,309.152 651,308.5C 652.417,309.078 653.25,310.078 653.5,311.5 Z"/></g>
<g><path style="opacity:1" fill="#010000" d="M 627.5,310.5 C 636.2,310.289 644.867,310.623 653.5,311.5C 690.067,320.371 717.901,341.037 737,373.5C 763.497,419.064 769.83,467.398 756,518.5C 744.025,561.124 723.692,599.124 695,632.5C 677.118,653.82 656.618,671.987 633.5,687C 595.467,706.259 555.134,717.259 512.5,720C 457.011,725.644 403.344,718.311 351.5,698C 289.619,670.739 266.119,623.906 281,557.5C 287.389,518.5 305.556,486.333 335.5,461C 354.966,446.308 376.633,441.308 400.5,446C 424.862,453.695 440.362,469.862 447,494.5C 447.907,504.15 446.574,513.484 443,522.5C 439.123,530.369 434.456,537.702 429,544.5C 415,559.167 401,573.833 387,588.5C 368.311,622.248 376.811,646.414 412.5,661C 447.899,676.97 484.566,681.303 522.5,674C 538.617,668.886 546.617,657.886 546.5,641C 545.594,627.945 542.427,615.445 537,603.5C 526.557,582.167 516.89,560.501 508,538.5C 506.045,529.786 509.212,526.62 517.5,529C 526.934,536.431 535.768,544.598 544,553.5C 558.724,571.896 574.558,589.396 591.5,606C 609.789,622.066 629.456,623.733 650.5,611C 670.395,596.405 684.228,577.238 692,553.5C 704.439,519.018 701.439,486.018 683,454.5C 679.167,449.333 674.667,444.833 669.5,441C 665.042,438.859 660.375,438.193 655.5,439C 651.047,440.726 646.714,442.726 642.5,445C 628.831,453.837 614.831,462.17 600.5,470C 561.706,486.507 539.206,474.007 533,432.5C 532.56,397.819 542.56,366.486 563,338.5C 581.679,322.745 603.179,313.412 627.5,310.5 Z"/></g>
</svg>
